HIERARCHY
ROOT pelvis
{
  OFFSET 0 100 0
  CHANNELS 6 Xposition Yposition Zposition Zrotation Xrotation Yrotation
  JOINT pelvis_right_femur
  {
    OFFSET -10.78128 -3.44521 -0.5502486
    CHANNELS 3 Zrotation Xrotation Yrotation
    JOINT right_femur_tibia
    {
      OFFSET -0.8047443 -44.0398 -0.1307829
      CHANNELS 3 Zrotation Xrotation Yrotation
      JOINT right_tibia_foot
      {
        OFFSET 3.006224 -47.83518 -5
        CHANNELS 3 Zrotation Xrotation Yrotation
        End Site
        {
          OFFSET 0 -5 15
        }
      }
    }
  }
  JOINT pelvis_left_femur
  {
    OFFSET 10.78128 -3.44521 -0.5502486
    CHANNELS 3 Zrotation Xrotation Yrotation
    JOINT left_femur_tibia
    {
      OFFSET 0.8047443 -44.0398 -0.1307829
      CHANNELS 3 Zrotation Xrotation Yrotation
      JOINT left_tibia_foot
      {
        OFFSET -4.370144 -48.10324 -4.275266
        CHANNELS 3 Zrotation Xrotation Yrotation
        End Site
        {
          OFFSET 0 -5 15
        }
      }
    }
  }
  JOINT pelvis_spine1
  {
    OFFSET 0 6.468898 -3.129235
    CHANNELS 3 Zrotation Xrotation Yrotation
    JOINT spine1
    {
      OFFSET 0 23.15396 4.99043
      CHANNELS 3 Zrotation Xrotation Yrotation
      JOINT spine2
      {
        OFFSET 0 20.79997 -5.064912
        CHANNELS 3 Zrotation Xrotation Yrotation
        JOINT neck
        {
          OFFSET 0 14.38658 9.616178
          CHANNELS 3 Zrotation Xrotation Yrotation
          End Site
          {
            OFFSET 0 20 0
          }
        }
      }
      JOINT right_manubrium
      {
        OFFSET -5.722621 16.35077 3.967754
        CHANNELS 3 Zrotation Xrotation Yrotation
        JOINT right_clavicle
        {
          OFFSET -13.16364 1.694482 -4.693211
          CHANNELS 3 Zrotation Xrotation Yrotation
          JOINT right_humerus
          {
            OFFSET -28.5034 -0.3100689 -2.792744
            CHANNELS 3 Zrotation Xrotation Yrotation
            JOINT right_radius
            {
              OFFSET -25.15693 0.02248979 -1.271978
              CHANNELS 3 Zrotation Xrotation Yrotation
              End Site
              {
                OFFSET -15 0 0
              }
            }
          }
        }
      }
      JOINT left_manubrium
      {
        OFFSET 5.722621 16.35077 3.967754
        CHANNELS 3 Zrotation Xrotation Yrotation
        JOINT left_clavicle
        {
          OFFSET 13.16364 1.694482 -4.693211
          CHANNELS 3 Zrotation Xrotation Yrotation
          JOINT left_humerus
          {
            OFFSET 29.39168 -1.063119 -2.237045
            CHANNELS 3 Zrotation Xrotation Yrotation
            JOINT left_radius
            {
              OFFSET 24.59957 -0.9528479 0.9047498
              CHANNELS 3 Zrotation Xrotation Yrotation
              End Site
              {
                OFFSET 15 -0 -0
              }
            }
          }
        }
      }
    }
  }
}
MOTION
Frames: 11
Frame Time: 0.0416666666667
0 103.5113 0 1.941696 1.349013 -0.1092878 3.620643 -19.96866 11.94387 -0 37.13413 -0 -2.571539 -16.52824 -1.615526 -8.586903 9.641633 -25.91396 -0 4.210208 -0 16.59376 -12.78915 30.66469 -4.575626 -3.849412 5.964411 2.713147 10.8233 -7.160125 1.488102 21.09902 7.39228 3.912966 -25.14677 10.16704 8.888924 -20.66021 12.42487 84.11733 42.56709 -18.37209 -0 0 17.01569 -5.388769 9.116827 4.88438 4.701282 -18.05548 -2.71961 -92.75026 24.01048 22.77106 0 0 -19.0661 12.96889 13.46025 -0.03372583
0.5558 104.3954 1.401568 1.756302 1.522139 -0.1725057 3.995709 -21.21397 11.83019 -0 35.84072 -0 -2.704413 -16.07042 -1.684017 -8.389199 9.881515 -25.42317 -0 4.307699 -0 16.72145 -13.14154 30.3831 -4.482702 -3.705505 5.875322 2.811571 10.79558 -7.233199 1.578575 21.03112 7.232436 3.712104 -25.38366 10.24275 8.509665 -20.56856 12.37541 84.47203 42.02083 -18.49698 -0 0 16.64265 -5.383633 9.00308 4.962408 4.830732 -18.28245 -2.584727 -92.21134 23.4381 22.047 0 0 -19.50432 13.69585 13.28478 -0.8397854
0.8964037 105.3424 3.107076 2.143974 -0.4249303 0.0323243 3.007512 -18.54969 9.385983 -0 35.66665 -0 -3.191156 -17.36828 -3.409183 -8.783659 13.259 -25.33739 -0 6.008025 -0 15.33144 -12.52758 29.11537 -5.039052 -2.511273 4.248519 2.981486 9.667632 -6.760491 1.606876 23.26635 7.081813 2.345505 -24.37297 10.92132 6.596149 -19.40772 11.62997 87.86567 43.14245 -19.94076 -0 0 11.33709 -6.029591 9.920163 6.357367 2.443584 -16.62503 -4.342941 -90.26861 30.69545 19.922 0 0 -25.40442 7.030902 13.60104 7.762695
1.242828 106.4095 5.032432 1.982443 0.2188344 0.2369697 3.887253 -20.77225 9.962 -0 34.65436 -0 -2.839589 -16.54783 -3.074902 -8.961285 13.65978 -25.39899 -0 6.615319 -0 16.8276 -11.90559 29.7858 -4.797481 -2.180592 4.348893 2.802189 9.953371 -6.596323 1.777848 22.99097 7.218213 2.31626 -24.50945 11.42109 6.490228 -19.37299 11.62623 88.91641 45.00181 -20.42883 -0 0 10.54324 -5.194652 10.44569 6.185627 2.486814 -16.66956 -4.446958 -88.76859 30.25723 18.76506 0 0 -28.5393 8.749695 12.50506 6.362214
1.664701 107.4726 7.079279 1.817803 1.258033 0.5248244 4.845564 -23.17972 10.95976 -0 33.90545 -0 -2.179697 -15.46807 -2.309745 -9.17826 13.42377 -25.55228 -0 5.788171 -0 18.57601 -11.45241 30.63825 -4.507832 -2.160255 4.798284 2.630338 10.51413 -6.542889 1.834736 22.25987 7.450408 2.542128 -24.98271 11.74506 6.729787 -19.82144 11.8097 89.32142 46.42868 -20.79104 -0 0 10.95296 -4.292148 10.62043 5.903668 2.887821 -16.99133 -4.388782 -87.99751 28.85559 18.65777 0 0 -30.8372 11.04394 11.10487 4.212095
2.152523 108.511 9.25448 1.567016 2.138142 0.9245809 5.756053 -25.07719 11.69674 -0 33.36946 -0 -1.737178 -14.34823 -1.663637 -9.276944 13.16464 -25.53565 -0 4.926272 -0 19.41643 -11.46209 31.13949 -4.15682 -2.148456 5.140433 2.446408 10.89916 -6.522808 1.834858 21.62378 7.71895 2.780241 -25.37097 11.98642 6.876238 -20.20222 11.92731 89.61856 47.32677 -21.11484 -0 0 11.46117 -3.660622 10.77671 5.596523 3.378911 -17.38025 -4.215872 -87.66368 27.93684 18.86149 0 0 -32.53635 12.44701 10.06657 2.967228
2.699441 109.5125 11.55863 1.231526 2.911991 1.436366 6.616581 -26.67521 12.1976 -0 32.85552 -0 -1.481593 -13.17327 -1.111433 -9.254473 12.89406 -25.38279 -0 3.994403 -0 19.51094 -11.92657 31.33621 -3.759483 -2.13356 5.390855 2.26618 11.12118 -6.52933 1.80319 21.06437 8.007905 3.032136 -25.72272 12.16747 6.949084 -20.51359 11.98787 89.77255 47.76439 -21.36276 -0 0 12.0454 -3.276413 10.92696 5.283213 3.948927 -17.82428 -3.939007 -87.69514 27.39526 19.30219 0 0 -33.68016 13.18037 9.432726 2.3961
3.294072 110.4578 13.99388 0.8307992 3.55258 2.049227 7.375085 -28.04251 12.40794 -0 32.18835 -0 -1.431088 -11.99114 -0.6806698 -9.105445 12.67752 -25.0845 -0 3.12875 -0 18.94569 -12.79799 31.19708 -3.353 -2.09403 5.524485 2.118014 11.16841 -6.56214 1.758804 20.62034 8.275565 3.27013 -26.03135 12.28303 6.934186 -20.70747 11.98421 89.79127 47.75516 -21.51826 -0 0 12.58902 -3.147751 11.06176 5.001059 4.545913 -18.28882 -3.595239 -87.99168 27.18823 19.82913 0 0 -34.26868 13.34445 9.237453 2.372094
3.92256 111.3323 16.56655 0.3899568 4.044136 2.74157 7.997924 -29.22445 12.31604 -0 31.28619 -0 -1.584718 -10.84377 -0.380955 -8.840962 12.56413 -24.64338 -0 2.487434 -0 17.83672 -13.96495 30.71167 -2.967096 -2.019304 5.531311 2.020141 11.05311 -6.621055 1.712914 20.31186 8.49168 3.476249 -26.28327 12.32658 6.837819 -20.75237 11.91797 89.70462 47.36664 -21.59222 -0 0 13.0017 -3.245186 11.16845 4.768728 5.121324 -18.74295 -3.225049 -88.45062 27.24826 20.31933 0 0 -34.34639 13.05895 9.435757 2.752966
4.571937 112.1288 19.29008 -0.06664151 4.391911 3.486706 8.477816 -30.26572 11.94941 -0 30.12157 -0 -1.91679 -9.74716 -0.1993344 -8.48432 12.57535 -24.06353 -0 2.188709 -0 16.32326 -15.28799 29.89305 -2.619373 -1.909669 5.420379 1.981721 10.81016 -6.706068 1.669673 20.13331 8.638516 3.641344 -26.47219 12.29349 6.678145 -20.64348 11.80084 89.54963 46.68312 -21.61078 -0 0 13.23631 -3.517177 11.22956 4.592326 5.642358 -19.1696 -2.864587 -88.9745 27.47313 20.68775 0 0 -33.99485 12.46962 9.919787 3.375006
5.232661 112.8477 22.18518 -0.5184799 4.613128 4.257841 8.823271 -31.19673 11.35559 -0 28.70825 -0 -2.388564 -8.698972 -0.1107138 -8.063616 12.70812 -23.34991 -0 2.302716 -0 14.53713 -16.63168 28.77097 -2.316577 -1.77246 5.212415 2.004165 10.48306 -6.816 1.628184 20.06382 8.70976 3.763207 -26.59769 12.18194 6.478373 -20.39506 11.64968 89.35747 45.78311 -21.60125 -0 0 13.28231 -3.909922 11.22895 4.470608 6.090961 -19.56258 -2.541549 -89.48525 27.75641 20.88828 0 0 -33.30314 11.71718 10.56544 4.086021
